<?xml version="1.0" encoding="UTF-8" standalone="no"?>
<!-- Created with Inkscape (http://www.inkscape.org/) -->

<svg
   xmlns:dc="http://purl.org/dc/elements/1.1/"
   xmlns:cc="http://creativecommons.org/ns#"
   xmlns:rdf="http://www.w3.org/1999/02/22-rdf-syntax-ns#"
   xmlns:svg="http://www.w3.org/2000/svg"
   xmlns="http://www.w3.org/2000/svg"
   xmlns:sodipodi="http://sodipodi.sourceforge.net/DTD/sodipodi-0.dtd"
   xmlns:inkscape="http://www.inkscape.org/namespaces/inkscape"
   width="15.645695mm"
   height="19.054939mm"
   viewBox="0 0 55.437501 67.517501"
   id="svg15421"
   version="1.1"
   inkscape:version="0.91 r13725"
   sodipodi:docname="Onisep.svg">
  <defs
     id="defs15423" />
  <sodipodi:namedview
     id="base"
     pagecolor="#ffffff"
     bordercolor="#666666"
     borderopacity="1.0"
     inkscape:pageopacity="0.0"
     inkscape:pageshadow="2"
     inkscape:zoom="7.9195959"
     inkscape:cx="26.094688"
     inkscape:cy="52.020311"
     inkscape:document-units="px"
     inkscape:current-layer="layer1"
     showgrid="false"
     fit-margin-top="0"
     fit-margin-left="0"
     fit-margin-right="0"
     fit-margin-bottom="0"
     inkscape:window-width="1920"
     inkscape:window-height="1017"
     inkscape:window-x="-8"
     inkscape:window-y="-8"
     inkscape:window-maximized="1" />
  <metadata
     id="metadata15426">
    <rdf:RDF>
      <cc:Work
         rdf:about="">
        <dc:format>image/svg+xml</dc:format>
        <dc:type
           rdf:resource="http://purl.org/dc/dcmitype/StillImage" />
        <dc:title />
      </cc:Work>
    </rdf:RDF>
  </metadata>
  <g
     inkscape:label="Calque 1"
     inkscape:groupmode="layer"
     id="layer1"
     transform="translate(-286.56696,-590.03203)">
    <path
       d="m 286.56696,657.54953 55.43625,0 0,-12.075 -55.43625,0 0,12.075 z"
       style="fill:#00000f;fill-opacity:1;fill-rule:nonzero;stroke:none"
       id="path11165"
       inkscape:connector-curvature="0" />
    <g
       id="g11167"
       transform="matrix(1.25,0,0,-1.25,342.00446,590.03203)"
       style="fill:#e10720;fill-opacity:1">
      <path
         d="m 0,0 -44.347,-0.006 -0.002,-44.348 44.345,0 L 0,-0.078"
         style="fill:#e10720;fill-opacity:1;fill-rule:nonzero;stroke:none"
         id="path11169"
         inkscape:connector-curvature="0" />
    </g>
    <g
       id="g11171"
       transform="matrix(1.25,0,0,-1.25,316.51071,622.82578)"
       style="fill-rule:nonzero">
      <path
         d="M 0,0 C 0.005,-1.076 -0.852,-1.943 -1.897,-1.945 -2.946,-1.943 -3.801,-1.078 -3.801,0 l 0,8.615 c 0,1.069 0.855,1.942 1.904,1.94 C -0.852,10.559 0,9.684 0,8.615 L 0,0 Z M 13.859,5.656 C 13.405,6.105 12.804,6.35 12.164,6.354 L 12.189,6.336 C 12.01,6.354 11.735,6.35 11.293,6.354 l -4.681,0 C 6.349,6.354 6.114,6.457 5.946,6.629 5.854,6.713 5.779,6.816 5.737,6.939 5.582,7.293 5.669,7.701 5.942,7.975 l 5.25,5.255 c 1.085,1.081 1.105,2.807 0.055,3.862 -1.051,1.047 -2.786,1.025 -3.862,-0.055 L 2.13,11.787 C 1.858,11.514 1.453,11.426 1.096,11.572 c -0.358,0.153 -0.583,0.5 -0.583,0.879 l 0,5.549 c 0,0.645 -0.249,1.248 -0.696,1.697 -0.434,0.426 -0.995,0.666 -1.596,0.666 -1.271,0 -2.289,-1.062 -2.292,-2.357 l 0,-5.555 c 0,-0.385 -0.233,-0.726 -0.591,-0.879 -0.354,-0.146 -0.766,-0.058 -1.03,0.215 l -5.259,5.254 c -1.078,1.07 -2.803,1.098 -3.858,0.047 -1.054,-1.051 -1.027,-2.777 0.049,-3.858 L -9.505,7.975 C -9.228,7.701 -9.148,7.293 -9.3,6.943 -9.446,6.584 -9.785,6.354 -10.18,6.35 l -5.549,-0.002 c -0.633,0.006 -1.235,-0.239 -1.691,-0.692 -0.426,-0.433 -0.661,-0.996 -0.661,-1.597 -0.006,-1.266 1.055,-2.289 2.352,-2.293 l 5.554,0 C -9.792,1.77 -9.446,1.533 -9.3,1.184 -9.15,0.82 -9.228,0.414 -9.505,0.146 l -5.256,-5.257 c -1.077,-1.076 -1.102,-2.811 -0.051,-3.866 1.045,-1.048 2.783,-1.019 3.861,0.055 l 5.259,5.258 c 0.264,0.275 0.67,0.355 1.03,0.205 0.358,-0.143 0.591,-0.49 0.591,-0.877 l 0,-5.553 c 0,-1.297 1.021,-2.353 2.292,-2.353 1.263,0 2.292,1.056 2.287,2.359 l 0.005,5.547 c 0,0.387 0.225,0.732 0.588,0.877 0.352,0.152 0.757,0.066 1.029,-0.203 l 5.255,-5.26 c 1.081,-1.074 2.811,-1.103 3.862,-0.051 1.05,1.051 1.027,2.786 -0.055,3.864 L 5.946,0.143 C 5.662,0.424 5.582,0.824 5.737,1.182 5.883,1.535 6.227,1.766 6.612,1.77 l 5.547,0 c 0.645,-0.004 1.246,0.244 1.695,0.691 0.427,0.43 0.663,0.996 0.665,1.598 0,0.595 -0.238,1.164 -0.66,1.597"
         style="fill:#ffffff;fill-opacity:1;fill-rule:nonzero;stroke:none"
         id="path11173"
         inkscape:connector-curvature="0" />
    </g>
    <g
       id="g11175"
       transform="matrix(1.25,0,0,-1.25,297.80196,649.62453)">
      <path
         d="m 0,0 c -0.802,0 -1.174,-0.654 -1.174,-1.541 0,-0.885 0.372,-1.529 1.174,-1.529 0.801,0 1.188,0.73 1.188,1.529 C 1.188,-0.67 0.801,0 0,0 m 0,-4.52 c -1.659,0 -2.871,1.223 -2.871,2.979 0,1.754 1.212,2.988 2.871,2.988 1.662,0 2.885,-1.234 2.885,-2.988 C 2.885,-3.297 1.662,-4.52 0,-4.52"
         style="fill:#ffffff;fill-opacity:1;fill-rule:nonzero;stroke:none"
         id="path11177"
         inkscape:connector-curvature="0" />
    </g>
    <g
       id="g11179"
       transform="matrix(1.25,0,0,-1.25,316.47071,655.27453)">
      <path
         d="m 0,0 c -1.003,0 -1.989,0.264 -2.668,0.666 l 0.557,1.145 c 0.681,-0.338 1.394,-0.526 2.207,-0.526 0.655,0 0.847,0.141 0.847,0.436 0,0.263 -0.227,0.394 -0.929,0.58 -1.531,0.418 -2.512,0.754 -2.512,1.965 0,1.191 1.056,1.701 2.547,1.701 0.797,0 1.671,-0.219 2.35,-0.559 L 1.867,4.223 C 1.233,4.527 0.545,4.674 0.014,4.674 -0.67,4.674 -0.85,4.561 -0.85,4.309 -0.85,4.066 -0.657,3.971 0.473,3.645 1.613,3.309 2.598,2.934 2.598,1.787 2.598,0.469 1.428,0 0,0"
         style="fill:#ffffff;fill-opacity:1;fill-rule:nonzero;stroke:none"
         id="path11181"
         inkscape:connector-curvature="0" />
    </g>
    <g
       id="g11183"
       transform="matrix(1.25,0,0,-1.25,323.52821,649.45328)">
      <path
         d="m 0,0 c -0.604,0 -0.979,-0.443 -1.042,-1.023 l 2.182,0 C 1.092,-0.514 0.752,0 0,0 m 2.739,-2.16 -3.805,0 c 0.061,-0.783 0.701,-1.08 1.308,-1.08 0.46,0 0.85,0.154 1.092,0.404 L 2.521,-3.729 C 2.013,-4.32 1.092,-4.656 0.242,-4.656 c -1.83,0 -2.993,1.166 -2.993,2.978 0,1.754 1.224,2.989 2.837,2.989 1.695,0 2.678,-1.35 2.678,-2.989 0,-0.217 -0.013,-0.371 -0.025,-0.482"
         style="fill:#ffffff;fill-opacity:1;fill-rule:nonzero;stroke:none"
         id="path11185"
         inkscape:connector-curvature="0" />
    </g>
    <g
       id="g11187"
       transform="matrix(1.25,0,0,-1.25,330.87196,649.58578)">
      <path
         d="m 0,0 c -0.521,0 -0.788,-0.195 -1.031,-0.484 l 0,-2.159 c 0.257,-0.318 0.645,-0.492 1.124,-0.492 0.644,0 0.996,0.504 0.996,1.465 C 1.089,-0.494 0.653,0 0,0 m 0.313,-4.551 c -0.555,0 -1.041,0.196 -1.344,0.444 l 0,-2.264 -1.673,0 0,7.666 1.673,0 0,-0.358 c 0.318,0.247 0.741,0.479 1.344,0.479 1.36,0 2.473,-0.92 2.473,-3.057 0,-1.711 -0.895,-2.91 -2.473,-2.91"
         style="fill:#ffffff;fill-opacity:1;fill-rule:nonzero;stroke:none"
         id="path11189"
         inkscape:connector-curvature="0" />
    </g>
    <g
       id="g11191"
       transform="matrix(1.25,0,0,-1.25,309.01571,654.19703)">
      <path
         d="m 0,0 0,2.484 c 0,1.618 -0.727,2.621 -2.354,2.621 -0.665,0 -1.199,-0.232 -1.484,-0.5 l 0,0.379 -1.677,0 0,-5 c 0,-0.464 0.376,-0.836 0.842,-0.836 0.456,0 0.836,0.372 0.836,0.836 l 0.003,2.405 c 0,0.994 0.395,1.3 1.081,1.3 0.694,0 1.078,-0.306 1.078,-1.332 l 0,-2.369 c 0,-0.465 0.376,-0.834 0.84,-0.834 0.461,0 0.835,0.369 0.835,0.834"
         style="fill:#ffffff;fill-opacity:1;fill-rule:nonzero;stroke:none"
         id="path11193"
         inkscape:connector-curvature="0" />
    </g>
    <g
       id="g11195"
       transform="matrix(1.25,0,0,-1.25,312.22321,650.53703)">
      <path
         d="m 0,0 -1.665,0 0,-2.955 c 0,-0.219 0.086,-0.412 0.241,-0.57 0.168,-0.165 0.368,-0.248 0.592,-0.248 0.226,0 0.431,0.083 0.594,0.248 0.163,0.158 0.245,0.359 0.245,0.588 L 0,-2.914 0,0 Z m -0.834,0.334 c 0.253,0 0.465,0.096 0.649,0.274 0.183,0.182 0.269,0.401 0.269,0.65 0,0.253 -0.086,0.47 -0.269,0.647 -0.184,0.187 -0.396,0.273 -0.649,0.273 -0.257,0 -0.472,-0.086 -0.645,-0.273 -0.186,-0.177 -0.276,-0.394 -0.276,-0.647 0,-0.249 0.09,-0.468 0.276,-0.65 0.173,-0.178 0.388,-0.274 0.645,-0.274"
         style="fill:#ffffff;fill-opacity:1;fill-rule:nonzero;stroke:none"
         id="path11197"
         inkscape:connector-curvature="0" />
    </g>
  </g>
</svg>
