<svg fill="none" height="280" viewBox="0 0 960 280" width="960" xmlns="http://www.w3.org/2000/svg"><path d="m0 0h480v280h-480z" fill="#f2f3f5"/><path d="m143.497 112.115-21.75-12.5574-21.747 12.5574v-12.5574l21.75-12.5576 21.751 12.5576v12.5574z" fill="#a435f0"/><g fill="#000"><path d="m100 122.659h11.393v27.68c0 7.154 5.34 10.638 10.357 10.638 5.056 0 10.358-3.579 10.358-10.733v-27.585h11.393v28.339c0 6.59-2.07 11.674-6.214 15.158s-9.323 5.179-15.631 5.179c-6.309 0-11.488-1.695-15.537-5.179s-6.119-8.379-6.119-14.877z"/><path d="m241.997 157.061c-3.449 3.07-7.379 4.576-11.86 4.576-8.168 0-13.652-4.656-14.27-11.867h36.813s.243-2.33.243-4.515c0-6.779-2.165-12.428-6.59-17.042-4.329-4.614-9.978-6.874-16.852-6.874-7.249 0-13.182 2.26-17.891 6.874-4.614 4.614-6.968 10.638-6.968 18.171v.376c0 7.438 2.354 13.368 6.968 17.796 4.614 4.424 10.733 6.684 18.172 6.684 8.649 0 15.533-3.411 20.697-9.295zm-21.653-23.104c2.541-1.979 5.649-3.014 9.134-3.014 3.294 0 6.024 1.035 8.378 3.108 2.249 1.888 3.463 4.207 3.569 6.874h-25.27c.365-2.755 1.758-5.077 4.189-6.968z"/><path d="m356.685 177.636c-4.628 10.912-9.463 14.624-16.877 14.624-1.27 0-5.137 0-5.137 0v-10.098h4.155c2.551 0 4.922-.957 7.182-6.175 2.26-5.217 2.26-5.217 2.26-5.217l-19.491-48.111h11.582l13.842 34.648 14.217-34.648h11.582c-.003 0-18.554 43.746-23.315 54.977z"/><path d="m187.854 104.487v22.47c-3.733-3.347-9.54-5.337-15.158-5.337-6.684 0-12.333 2.355-16.947 7.154-4.519 4.709-6.778 10.544-6.778 17.607s2.259 12.898 6.778 17.701c4.614 4.709 10.263 7.063 16.947 7.063 7.712 0 12.583-3.028 15.158-5.403v4.368h11.298v-65.623zm-3.389 52.255c-2.73 2.73-6.214 4.144-10.263 4.144s-7.344-1.414-10.074-4.144c-2.635-2.73-3.954-6.214-3.954-10.358 0-4.143 1.319-7.627 3.954-10.357 2.73-2.73 6.025-4.144 10.074-4.144s7.533 1.414 10.263 4.144c2.824 2.73 4.238 6.214 4.238 10.357 0 4.144-1.414 7.628-4.238 10.358z"/><path d="m311.212 121.719c-8.582 0-13.045 3.561-16.101 6.989-1.221-2.33-4.663-6.989-12.709-6.989-6.796 0-10.806 3.435-12.803 5.884v-4.941h-11.203v47.452h11.203v-27.305c0-6.403 3.955-11.017 9.228-11.017 5.368 0 8.474 4.049 8.474 10.544v27.774h11.203v-27.304c0-6.498 3.859-11.018 9.414-11.018 5.368 0 8.473 4.049 8.473 10.544v27.775h11.298v-29.375c0-12.372-6.649-19.013-16.477-19.013z"/></g><path d="m480 0h480v280h-480z" fill="#1c1d1f"/><path d="m623.497 112.115-21.75-12.5574-21.747 12.5574v-12.5574l21.75-12.5576 21.751 12.5576v12.5574z" fill="#a435f0"/><path d="m580 122.659h11.393v27.68c0 7.154 5.34 10.638 10.357 10.638 5.056 0 10.358-3.579 10.358-10.733v-27.585h11.393v28.339c0 6.59-2.07 11.674-6.214 15.158s-9.323 5.179-15.631 5.179c-6.309 0-11.488-1.695-15.537-5.179s-6.119-8.379-6.119-14.877z" fill="#fff"/><path d="m721.997 157.061c-3.449 3.07-7.379 4.576-11.86 4.576-8.168 0-13.652-4.656-14.27-11.867h36.813s.243-2.33.243-4.515c0-6.779-2.165-12.428-6.59-17.042-4.329-4.614-9.978-6.874-16.852-6.874-7.249 0-13.182 2.26-17.891 6.874-4.614 4.614-6.968 10.638-6.968 18.171v.376c0 7.438 2.354 13.368 6.968 17.796 4.614 4.424 10.733 6.684 18.172 6.684 8.649 0 15.533-3.411 20.697-9.295zm-21.653-23.104c2.541-1.979 5.649-3.014 9.134-3.014 3.294 0 6.024 1.035 8.378 3.108 2.249 1.888 3.463 4.207 3.569 6.874h-25.27c.365-2.755 1.758-5.077 4.189-6.968z" fill="#fff"/><path d="m836.685 177.636c-4.628 10.912-9.463 14.624-16.877 14.624-1.27 0-5.137 0-5.137 0v-10.098h4.155c2.551 0 4.922-.957 7.182-6.175 2.26-5.217 2.26-5.217 2.26-5.217l-19.491-48.111h11.582l13.842 34.648 14.217-34.648h11.582c-.003 0-18.554 43.746-23.315 54.977z" fill="#fff"/><path d="m667.854 104.487v22.47c-3.733-3.347-9.54-5.337-15.158-5.337-6.684 0-12.333 2.355-16.947 7.154-4.519 4.709-6.778 10.544-6.778 17.607s2.259 12.898 6.778 17.701c4.614 4.709 10.263 7.063 16.947 7.063 7.712 0 12.583-3.028 15.158-5.403v4.368h11.298v-65.623zm-3.389 52.255c-2.73 2.73-6.214 4.144-10.263 4.144s-7.344-1.414-10.074-4.144c-2.635-2.73-3.954-6.214-3.954-10.358 0-4.143 1.319-7.627 3.954-10.357 2.73-2.73 6.025-4.144 10.074-4.144s7.533 1.414 10.263 4.144c2.824 2.73 4.238 6.214 4.238 10.357 0 4.144-1.414 7.628-4.238 10.358z" fill="#fff"/><path d="m791.212 121.719c-8.582 0-13.045 3.561-16.101 6.989-1.221-2.33-4.663-6.989-12.709-6.989-6.796 0-10.806 3.435-12.803 5.884v-4.941h-11.203v47.452h11.203v-27.305c0-6.403 3.955-11.017 9.228-11.017 5.368 0 8.474 4.049 8.474 10.544v27.774h11.203v-27.304c0-6.498 3.859-11.018 9.414-11.018 5.368 0 8.473 4.049 8.473 10.544v27.775h11.298v-29.375c0-12.372-6.649-19.013-16.477-19.013z" fill="#fff"/></svg>