<?xml version="1.0" encoding="UTF-8" standalone="no"?><!DOCTYPE svg PUBLIC "-//W3C//DTD SVG 1.1//EN" "http://www.w3.org/Graphics/SVG/1.1/DTD/svg11.dtd"><svg width="100%" height="100%" viewBox="0 0 960 280" version="1.1" xmlns="http://www.w3.org/2000/svg" xmlns:xlink="http://www.w3.org/1999/xlink" xml:space="preserve" xmlns:serif="http://www.serif.com/" style="fill-rule:evenodd;clip-rule:evenodd;stroke-linejoin:round;stroke-miterlimit:2;"><path d="M143.497,112.115l-21.75,-12.557l-21.747,12.557l0,-12.557l21.75,-12.558l21.751,12.558l0,12.557l-0.004,0Z" style="fill:#a435f0;fill-rule:nonzero;"/><g><path d="M100,122.659l11.393,0l0,27.68c0,7.154 5.34,10.638 10.357,10.638c5.056,0 10.358,-3.579 10.358,-10.733l0,-27.585l11.393,0l0,28.339c0,6.59 -2.07,11.674 -6.214,15.158c-4.144,3.484 -9.323,5.179 -15.631,5.179c-6.309,0 -11.488,-1.695 -15.537,-5.179c-4.049,-3.484 -6.119,-8.379 -6.119,-14.877l0,-28.62Z" style="fill-rule:nonzero;"/><path d="M241.997,157.061c-3.449,3.07 -7.379,4.576 -11.86,4.576c-8.168,0 -13.652,-4.656 -14.27,-11.867l36.813,0c0,0 0.243,-2.33 0.243,-4.515c0,-6.779 -2.165,-12.428 -6.59,-17.042c-4.329,-4.614 -9.978,-6.874 -16.852,-6.874c-7.249,0 -13.182,2.26 -17.891,6.874c-4.614,4.614 -6.968,10.638 -6.968,18.171l0,0.376c0,7.438 2.354,13.368 6.968,17.796c4.614,4.424 10.733,6.684 18.172,6.684c8.649,0 15.533,-3.411 20.697,-9.295l-8.462,-4.884Zm-21.653,-23.104c2.541,-1.979 5.649,-3.014 9.134,-3.014c3.294,-0 6.024,1.035 8.378,3.108c2.249,1.888 3.463,4.207 3.569,6.874l-25.27,-0c0.365,-2.755 1.758,-5.077 4.189,-6.968Z" style="fill-rule:nonzero;"/><path d="M356.685,177.636c-4.628,10.912 -9.463,14.624 -16.877,14.624l-5.137,0l0,-10.098l4.155,0c2.551,0 4.922,-0.957 7.182,-6.175l2.26,-5.217l-19.491,-48.111l11.582,0l13.842,34.648l14.217,-34.648l11.582,0c-0.003,0 -18.554,43.746 -23.315,54.977Z" style="fill-rule:nonzero;"/><path d="M187.854,104.487l0,22.47c-3.733,-3.347 -9.54,-5.337 -15.158,-5.337c-6.684,-0 -12.333,2.355 -16.947,7.154c-4.519,4.709 -6.778,10.544 -6.778,17.607c0,7.063 2.259,12.898 6.778,17.701c4.614,4.709 10.263,7.063 16.947,7.063c7.712,0 12.583,-3.028 15.158,-5.403l0,4.368l11.298,0l0,-65.623l-11.298,0Zm-3.389,52.255c-2.73,2.73 -6.214,4.144 -10.263,4.144c-4.049,0 -7.344,-1.414 -10.074,-4.144c-2.635,-2.73 -3.954,-6.214 -3.954,-10.358c0,-4.143 1.319,-7.627 3.954,-10.357c2.73,-2.73 6.025,-4.144 10.074,-4.144c4.049,0 7.533,1.414 10.263,4.144c2.824,2.73 4.238,6.214 4.238,10.357c0,4.144 -1.414,7.628 -4.238,10.358Z" style="fill-rule:nonzero;"/><path d="M311.212,121.719c-8.582,-0 -13.045,3.561 -16.101,6.989c-1.221,-2.33 -4.663,-6.989 -12.709,-6.989c-6.796,0 -10.806,3.435 -12.803,5.884l0,-4.941l-11.203,0l0,47.452l11.203,0l0,-27.305c0,-6.403 3.955,-11.017 9.228,-11.017c5.368,0 8.474,4.049 8.474,10.544l0,27.774l11.203,0l0,-27.304c0,-6.498 3.859,-11.018 9.414,-11.018c5.368,0 8.473,4.049 8.473,10.544l0,27.775l11.298,0l0,-29.375c0,-12.372 -6.649,-19.013 -16.477,-19.013Z" style="fill-rule:nonzero;"/></g><path d="M623.497,112.115l-21.75,-12.557l-21.747,12.557l0,-12.557l21.75,-12.558l21.751,12.558l0,12.557l-0.004,0Z" style="fill:#a435f0;fill-rule:nonzero;"/><path d="M580,122.659l11.393,0l0,27.68c0,7.154 5.34,10.638 10.357,10.638c5.056,0 10.358,-3.579 10.358,-10.733l0,-27.585l11.393,0l0,28.339c0,6.59 -2.07,11.674 -6.214,15.158c-4.144,3.484 -9.323,5.179 -15.631,5.179c-6.309,0 -11.488,-1.695 -15.537,-5.179c-4.049,-3.484 -6.119,-8.379 -6.119,-14.877l0,-28.62Z" style="fill:#fff;fill-rule:nonzero;"/><path d="M721.997,157.061c-3.449,3.07 -7.379,4.576 -11.86,4.576c-8.168,0 -13.652,-4.656 -14.27,-11.867l36.813,0c-0,0 0.243,-2.33 0.243,-4.515c-0,-6.779 -2.165,-12.428 -6.59,-17.042c-4.329,-4.614 -9.978,-6.874 -16.852,-6.874c-7.249,0 -13.182,2.26 -17.891,6.874c-4.614,4.614 -6.968,10.638 -6.968,18.171l-0,0.376c-0,7.438 2.354,13.368 6.968,17.796c4.614,4.424 10.733,6.684 18.172,6.684c8.649,0 15.533,-3.411 20.697,-9.295l-8.462,-4.884Zm-21.653,-23.104c2.541,-1.979 5.649,-3.014 9.134,-3.014c3.294,-0 6.024,1.035 8.378,3.108c2.249,1.888 3.463,4.207 3.569,6.874l-25.27,-0c0.365,-2.755 1.758,-5.077 4.189,-6.968Z" style="fill:#fff;fill-rule:nonzero;"/><path d="M836.685,177.636c-4.628,10.912 -9.463,14.624 -16.877,14.624l-5.137,0l0,-10.098l4.155,0c2.551,0 4.922,-0.957 7.182,-6.175l2.26,-5.217l-19.491,-48.111l11.582,0l13.842,34.648l14.217,-34.648l11.582,0c-0.003,0 -18.554,43.746 -23.315,54.977Z" style="fill:#fff;fill-rule:nonzero;"/><path d="M667.854,104.487l0,22.47c-3.733,-3.347 -9.54,-5.337 -15.158,-5.337c-6.684,-0 -12.333,2.355 -16.947,7.154c-4.519,4.709 -6.778,10.544 -6.778,17.607c0,7.063 2.259,12.898 6.778,17.701c4.614,4.709 10.263,7.063 16.947,7.063c7.712,0 12.583,-3.028 15.158,-5.403l0,4.368l11.298,0l0,-65.623l-11.298,0Zm-3.389,52.255c-2.73,2.73 -6.214,4.144 -10.263,4.144c-4.049,0 -7.344,-1.414 -10.074,-4.144c-2.635,-2.73 -3.954,-6.214 -3.954,-10.358c0,-4.143 1.319,-7.627 3.954,-10.357c2.73,-2.73 6.025,-4.144 10.074,-4.144c4.049,0 7.533,1.414 10.263,4.144c2.824,2.73 4.238,6.214 4.238,10.357c0,4.144 -1.414,7.628 -4.238,10.358Z" style="fill:#fff;fill-rule:nonzero;"/><path d="M791.212,121.719c-8.582,-0 -13.045,3.561 -16.101,6.989c-1.221,-2.33 -4.663,-6.989 -12.709,-6.989c-6.796,0 -10.806,3.435 -12.803,5.884l0,-4.941l-11.203,0l0,47.452l11.203,0l0,-27.305c0,-6.403 3.955,-11.017 9.228,-11.017c5.368,0 8.474,4.049 8.474,10.544l0,27.774l11.203,0l0,-27.304c0,-6.498 3.859,-11.018 9.414,-11.018c5.368,0 8.473,4.049 8.473,10.544l0,27.775l11.298,0l0,-29.375c0,-12.372 -6.649,-19.013 -16.477,-19.013Z" style="fill:#fff;fill-rule:nonzero;"/></svg>