<?xml version="1.0" encoding="utf-8"?>
<!-- Generator: Adobe Illustrator 24.0.1, SVG Export Plug-In . SVG Version: 6.00 Build 0)  -->
<svg version="1.1" id="Calque_1" xmlns="http://www.w3.org/2000/svg" xmlns:xlink="http://www.w3.org/1999/xlink" x="0px" y="0px"
	 viewBox="0 0 279 126" fill="currentColor" style="enable-background:new 0 0 279 126;" xml:space="preserve">
<style type="text/css">
	.st0{fill:#fff}
</style>
<g id="tP2Pah.tif">
	<g>
		<path class="st0" d="M9.5,56.4c0.7,0,1.5,0.1,2.2,0.1c3.2-0.1,6.4-0.2,9.6-0.2c4,0,7.9,0.7,11.2,3.3c2.3,1.8,3.7,4.3,4.2,7.1
			c0.9,4.5-0.2,8.6-3.4,12c-2.5,2.7-5.6,4.2-9.3,4.2c-2.3,0-4.6-0.2-6.9-0.2c-2.6,0-5.1,0.2-7.7,0.3c0-0.4,0-0.8,0-1.2
			C12.6,82,13,81,13,78.7c-0.1-6,0-12,0-18c0-2.8-0.1-2.9-2.8-3.3c-0.2,0-0.4-0.1-0.6-0.1C9.5,57,9.5,56.7,9.5,56.4z M17.9,57.8
			c0,7.3,0,14.4,0,21.5c0,1,0.5,1.9,1.7,2.1c4.1,0.9,8.5-0.7,10.6-4.8c1.8-3.4,1.8-7,1.1-10.7c-0.5-2.4-1.4-4.6-3.4-6.1
			C24.9,57.5,21.5,57.6,17.9,57.8z"/>
		<path class="st0" d="M129.8,69.9c0.8,1.3,1.7,2.6,2.6,3.9c1.3,1.9,2.6,3.8,3.8,5.7c0.7,1.1,1.6,1.9,2.9,2.1
			c0.3,0.1,0.6,0.5,0.8,0.8c-0.3,0.1-0.6,0.4-0.9,0.4c-1.9,0-3.9,0-5.8,0c-0.4,0-0.8-0.3-1-0.6c-2.3-3.5-4.7-7-6.8-10.6
			c-0.7-1.2-1.5-1.4-2.6-1.2c-0.2,0-0.6,0.4-0.6,0.7c0,2.7-0.1,5.4,0.1,8.2c0.1,2,0.8,2.4,2.9,2.5c0.8,0,0.8,0,0.7,1.1
			c-1.8-0.1-3.6-0.2-5.5-0.2c-1.9,0-3.7,0.1-5.6,0.2c-0.7,0-1.1-0.2-0.8-1c0.4-0.1,0.9-0.1,1.3-0.2c1.6-0.4,2-0.9,2-2.5
			c0-6.3,0-12.6,0-19c0-2.2-0.4-2.6-2.6-2.9c-0.3,0-0.5-0.4-0.8-0.6c0.3-0.2,0.6-0.5,1-0.5c3.3-0.1,6.6-0.1,9.9-0.1
			c2.4,0,4.9,0,7.1,1.1c3.7,1.8,4.4,7.4,1.2,10.3C132.1,68.4,131,69.1,129.8,69.9z M122,63.5c0,1.1,0,2.2,0,3.4c0,2.3,0,2.3,2.4,2.3
			c3.1,0,4.8-1.1,5.3-4.1c0.6-3.2-0.1-6-3.6-7.1c-1-0.3-2-0.1-3.1-0.2c-0.8-0.1-1,0.3-1,1.1C122.1,60.4,122,61.9,122,63.5z"/>
		<path class="st0" d="M65.7,42.9c-6.6,0.2-12-3.9-13.6-9.4c-2.4-8.2,2.5-16.8,11-18.2c4.9-0.8,9.5,0.3,13.2,3.6
			c2.4,2.1,3.6,4.9,3.8,8.2c0.3,3.6-0.5,6.9-2.6,9.9C75.2,40.5,70.7,43.1,65.7,42.9z M56.7,27.9c0.2,3.7,0.8,7.3,3.2,10.3
			c2.1,2.6,4.9,3.5,8.2,2.9c2.8-0.5,4.7-2.2,5.6-4.8c0.5-1.6,0.8-3.2,1-4.9c0.6-4.2-0.3-8.2-2.9-11.6c-3.5-4.5-10.6-3.8-13.1,0.6
			C57.2,22.8,56.9,25.3,56.7,27.9z"/>
		<path class="st0" d="M178.3,57.4c0-0.4,0-0.7,0-1.1c0.7,0.1,1.3,0.2,1.9,0.2c1.7,0,3.4-0.1,5.1-0.1c0.3,0,0.8,0.2,1,0.5
			c3.8,4.3,7.7,8.6,11.5,12.9c1.6,1.8,3.3,3.7,5.1,5.7c0.1-0.6,0.1-0.9,0.1-1.2c0-4.3,0-8.6,0-13c0-2.1-1-3.8-3.3-3.7
			c-0.8,0-0.9-0.5-0.7-1.1c3.3,0,6.5,0,9.8,0c0.2,0.7,0.2,1.1-0.7,1.2c-2.1,0.2-3.1,1.2-3.1,3.3c0,7.5,0,15,0,22.5
			c-0.8,0.2-1.4,0.1-2-0.6C197,76,191,69.3,185,62.6c-0.2-0.2-0.2-0.5-0.3-0.8c-0.1,0.1-0.3,0.2-0.4,0.3c0,0.2-0.1,0.4-0.1,0.7
			c0,5.2,0,10.5,0,15.7c0,2.4,0.8,3.2,3.2,3.4c0.7,0,1.1,0.2,0.8,1c-3.2,0-6.5,0-9.8,0c0-0.3,0-0.6,0-0.8c2.9-0.5,3.8-1.5,3.8-4.5
			c0-5.2,0-10.5,0-15.7C182.1,58.8,181.4,57.8,178.3,57.4z"/>
		<path class="st0" d="M231.8,16.6c0.2,2.1,0.3,4.2,0.5,6.3c-0.6,0.3-1,0.2-1.2-0.6c-1.1-3.4-3.5-5.1-7-5.5c-3.5-0.4-6.6,0.3-9.1,3
			c-1.6,1.7-2.4,3.9-2.6,6.1c-0.4,3.9,0,7.6,2.3,11c2.2,3.3,5.9,4.8,9.9,4.1c0.2,0,0.4,0,0.6-0.1c1.6-0.2,1.7-0.3,1.7-1.9
			c0-1.3-0.1-2.6,0-4c0.1-2.3-0.9-2.7-2.6-2.9c-0.8-0.1-0.9-0.4-0.6-1.1c0.7,0,1.5,0,2.2,0c2.5,0,5.1,0,7.6,0c0.7,0,1.1,0.1,0.8,0.9
			c-2.3,0.5-2.5,0.7-2.5,3c0,1.3-0.1,2.6,0,3.8c0,0.5,0.3,1,0.6,1.4c0.4,0.5,0.4,0.8-0.2,0.9c-5.9,1.5-11.8,2.6-17.6,0
			c-4.3-1.9-6.7-5.4-7.4-10.1c-0.6-3.7-0.1-7.1,2.1-10.2c2.4-3.3,5.8-4.9,9.7-5.7c3.6-0.7,7,0,10.5,0.8
			C230.3,16.3,231.1,16.5,231.8,16.6z"/>
		<path class="st0" d="M247.6,56.2c1.3,0.1,2.6,0.2,3.9,0.2c4,0,8.1,0,12.1,0c0.1,0,0.2,0,0.4,0c2.8-0.2,2.8-0.2,2.8,2.6
			c0,0.8,0.1,1.6,0,2.4c0,0.4-0.4,0.7-0.6,1c-0.1-0.1-0.2-0.1-0.3-0.2c-0.1-0.4-0.3-0.7-0.3-1.1c-0.4-2-1.5-3.1-3.4-3.2
			c-2-0.1-4.1,0-6.2,0c0,3.3,0,6.6,0,9.9c1.8,0,3.5,0.1,5.2,0c1.2-0.1,1.8-1,2-2.2c0.1-0.6,0.2-1.4,1.3-1c0,2.7,0,5.5,0,8.3
			c0,0.2-0.3,0.5-0.5,0.5c-0.2,0-0.4-0.2-0.6-0.4c-0.1-0.1-0.1-0.2-0.1-0.3c-0.8-2.9-0.8-2.9-3.8-2.9c-1.2,0-2.3,0-3.6,0
			c0,1.1,0,2.2,0,3.2c0,1.9,0,3.8,0,5.8c0,1.2,0.6,1.9,1.7,2.2c2.5,0.5,5.1,0.4,7.6-0.2c1.1-0.3,1.9-1.1,2.4-2.2
			c0.3-0.6,0.5-1.2,0.8-1.9c0.3,0.1,0.6,0.2,1,0.2c-0.4,2-0.9,3.9-1.3,5.9c-6.7,0-13.5,0-20.3,0c0-0.3,0-0.6,0-1c0.4,0,0.8,0,1.1,0
			c1.5-0.2,2.2-0.9,2.2-2.5c0-6.5,0-13,0-19.4c0-1.8-0.6-2.4-2.3-2.5C247.6,57.5,247.2,57.3,247.6,56.2z"/>
		<path class="st0" d="M64.9,76.7c0.4,0.1,0.7,0.2,1,0.3c-0.4,2-0.8,3.9-1.3,5.9c-6.7,0-13.5,0-20.3,0c0-0.3,0-0.6,0-0.9
			c0.3,0,0.5,0,0.7,0c1.9-0.2,2.6-0.8,2.6-2.7c0-6.4,0-12.7,0-19.1c0-1.6-0.6-2.7-2.5-2.6c-0.9,0-0.9-0.1-0.8-1.3
			c0.9,0.1,1.7,0.2,2.6,0.2c4.6,0,9.1,0,13.7,0c0.1,0,0.2,0,0.2,0c2.7-0.2,2.7-0.2,2.7,2.6c0,0.8,0.1,1.6,0,2.4c0,0.4-0.4,0.7-0.6,1
			c-0.1,0-0.2-0.1-0.3-0.1c-0.1-0.4-0.3-0.7-0.3-1.1c-0.4-2-1.4-3.1-3.4-3.2c-2-0.1-4.1,0-6.2,0c0,3.3,0,6.6,0,9.9
			c1.8,0,3.5,0.1,5.2,0c1.2-0.1,1.8-1,2-2.2c0.1-0.6,0.2-1.4,1.3-0.9c0,2.7,0,5.5,0,8.3c0,0.2-0.3,0.5-0.5,0.5
			c-0.2,0-0.4-0.2-0.6-0.4c-0.1-0.1-0.1-0.4-0.2-0.6C59.4,70.3,59,70,56.6,70c-1.3,0-2.6,0-3.8,0c-0.1,0-0.1,0-0.4,0.1
			c0,1.2,0,2.5,0,3.7c0,1.7,0,3.4,0,5c0,1.2,0.6,1.9,1.7,2.2c2.5,0.6,5.1,0.4,7.6-0.2c1.4-0.4,2.1-1.4,2.7-2.7
			C64.5,77.7,64.6,77.2,64.9,76.7z"/>
		<path class="st0" d="M268.4,15.7c0,1.8,0,3.5,0,5.3c0,0.3-0.5,0.6-0.8,1c-0.2-0.9-0.4-1.4-0.4-1.9c-0.3-1.7-1.4-2.6-2.9-2.7
			c-2.2-0.2-4.4,0-6.7,0c0,3.3,0,6.5,0,9.9c1.8,0,3.6,0.1,5.3,0c1.4-0.1,1.8-1.4,2.1-2.6c0.1-0.3,0.5-0.6,0.8-0.8
			c0.1,0.1,0.2,0.2,0.3,0.2c0,2.7,0,5.4,0,8.1c0,0.3-0.4,0.6-0.8,1.1c-0.2-0.8-0.3-1.2-0.4-1.7c-0.3-1.9-0.8-2.3-3-2.5
			c-1.1-0.1-2.3,0-3.5,0c-0.7,0-0.9,0.2-0.9,0.9c0,2.8,0,5.5,0,8.3c0,1.2,0.7,2.1,2,2.2c2.1,0.1,4.2,0.1,6.2,0
			c2-0.2,3.3-1.5,3.9-3.4c0.1-0.3,0.2-0.7,0.4-1c0.7,0.1,1.1,0.2,0.8,1.1c-0.5,1.7-0.8,3.4-1.1,5.1c-6.8,0-13.5,0-20.3,0
			c0-0.2-0.1-0.5-0.1-0.9c0.3,0,0.6-0.1,0.9-0.1c1.8-0.3,2.6-0.7,2.5-2.8c-0.1-6.4,0-12.8,0-19.2c0-1.7-0.6-2.3-2.3-2.3
			c-0.9,0-1.3-0.2-1-1.2C255.5,15.7,261.9,15.7,268.4,15.7z"/>
		<path class="st0" d="M188.5,15.6c0,2,0,3.9,0,5.9c-0.2,0.1-0.5,0.2-1,0.3c-0.1-0.4-0.1-0.7-0.1-1c-0.3-2.2-1.6-3.4-3.8-3.4
			c-1.7,0-3.4,0-5.2,0c-0.7,0-1,0.2-1,1c0,2.7,0,5.4,0,8.2c0,0.7,0.3,0.9,0.9,0.9c1.3,0,2.6,0,4,0c1.7-0.1,2.4-0.9,2.8-3.3
			c0.3,0,0.7,0,1.1,0c0,2.8,0,5.5,0,8.2c0,0.3-0.6,0.5-1.1,1c-0.1-0.6-0.1-0.8-0.1-1c-0.1-2.2-0.9-3-2.9-3.1c-1.2-0.1-2.5,0-3.7,0
			c-0.7,0-0.9,0.3-0.9,1c0,2.6,0,5.3,0,7.9c0,1.4,0.7,2.3,2,2.4c2.1,0.1,4.2,0.1,6.3-0.1c2-0.2,3.2-1.5,3.8-3.3
			c0.1-0.3,0.3-0.7,0.4-1c0.8-0.1,1,0.4,0.9,1c-0.3,1.5-0.7,3-1,4.5c-0.1,0.7-0.7,0.8-1.3,0.7c-3.9-0.1-7.7-0.2-11.6-0.2
			c-2.2,0-4.5,0.2-6.7,0.2c-0.4,0-0.7-0.3-1.1-0.5c0.3-0.2,0.6-0.5,1-0.5c2-0.4,2.4-0.7,2.4-2.8c0-6.4,0-12.8,0-19.2
			c0-1.9-0.4-2.3-2.3-2.4c-0.5,0-1.2,0-1-0.7c0.1-0.2,0.7-0.5,1.1-0.5c4.2,0,8.5,0.2,12.7,0.2C184.8,15.8,186.6,15.7,188.5,15.6z"/>
		<path class="st0" d="M172.3,82.8c-3.5,0-7.1,0-10.7,0c-0.2-0.6-0.2-0.9,0.7-1c1.9-0.2,2.2-0.7,1.6-2.5c-0.5-1.7-1.1-3.3-1.6-5
			c-0.2-0.7-0.6-0.9-1.2-0.8c-2.3,0-4.6,0-6.8,0c-0.8,0-1.1,0.3-1.2,1c-0.4,1.4-0.9,2.9-1.3,4.3c-0.7,2.3-0.4,2.9,2,3.1
			c0.8,0.1,0.9,0.3,0.7,1c-2.8,0-5.7,0-9,0c0.5-0.5,0.7-0.9,1-1c1.7-0.4,2.6-1.5,3.2-3.2c2.2-6.6,4.6-13.1,6.8-19.7
			c0.4-1.3,0.9-2.2,2.3-2.8c2.3-0.9,2.2-1,3,1.4c2.5,7.3,5.1,14.6,7.7,21.9c0.4,1.2,1.1,2.2,2.5,2.4c0.3,0,0.5,0.5,0.7,0.7
			C172.5,82.7,172.4,82.7,172.3,82.8z M157.8,61c-0.1,0-0.3,0-0.4,0c-1.1,3.4-2.2,6.7-3.3,10.2c2.5,0,4.7,0,7,0
			C160,67.7,158.9,64.4,157.8,61z"/>
		<path class="st0" d="M240,57.7c0.1,2.1,0.2,4.2,0.3,6.1c-0.7,0.4-1.1,0.2-1.3-0.5c-1.3-4.4-4.1-6.3-9.7-5.9
			c-3.4,0.3-6.5,3-7.5,6.9c-1.3,4.9-0.8,9.6,2.2,13.9c2.8,3.9,8.8,4.9,12.4,2c1.2-1,2-2.5,2.7-3.9c0.4-0.7,0.6-0.8,1.2-0.6
			c-0.3,1.9-0.5,3.7-0.8,5.6c0,0.3-0.3,0.6-0.6,0.7c-6.3,2.1-12.5,2.5-18.3-1.6c-2.9-2.1-4.2-5.2-4.6-8.6c-0.4-2.9-0.2-5.9,1.2-8.6
			c2.2-4.4,6-6.5,10.7-7.3c3.3-0.6,6.5,0,9.6,1.1C238.3,57.3,239.2,57.5,240,57.7z"/>
		<path class="st0" d="M35,35.2c-0.3,1.8-0.5,3.6-0.9,5.4c-0.1,0.3-0.4,0.8-0.7,0.9c-5.1,1.9-10.3,2.2-15.4,0
			c-4-1.6-6.3-4.7-7.1-8.8c-0.7-3.7-0.7-7.3,1.3-10.8c2.3-3.8,5.7-5.7,9.9-6.5c3.7-0.7,7.3,0.1,10.8,1.2c1.7,0.5,1.7,0.5,1.8,2.3
			c0,1.5,0.2,2.9,0.3,4.3c-1,0.5-1.2-0.1-1.4-0.8c-0.9-2.5-2.3-4.5-5-5.3c-5.2-1.4-10.3,0.5-12,6.2c-1.5,5.1-1.1,10.1,2.3,14.5
			c2.9,3.7,8.4,4.5,12.1,1.9c1.4-1,2.3-2.5,2.8-4.1C34,34.9,34.3,34.7,35,35.2z"/>
		<path class="st0" d="M106.9,56.2c0,1.9,0,3.6,0,5.4c0,0.3-0.4,0.6-0.8,1.1c-0.3-1.2-0.5-2-0.8-2.8c-0.4-1.2-1.4-1.9-2.7-1.9
			c-2.2-0.1-4.4,0-6.7,0c0,3.3,0,6.5,0,9.9c2,0,4,0.1,5.9,0c1.1-0.1,1.5-1.1,1.8-2.1c0.1-0.3,0.4-0.6,0.6-0.9c0.1,0.3,0.4,0.6,0.4,1
			c0,2.6,0,5.1,0,7.7c-0.4,0-0.6,0-1,0c-0.1-0.5-0.2-1-0.3-1.5c-0.5-1.6-1.1-2.1-2.7-2.1c-1.6,0-3.1,0-4.9,0c0,0.5,0,1,0,1.4
			c0,2.5,0.1,5,0,7.6c-0.1,2.4,1,2.7,2.7,2.9c0.4,0.1,0.8,0,1.3,0c0,0.4,0.1,0.7,0.1,1c-0.3,0-0.4,0.1-0.6,0.1c-3.6,0-7.2,0-10.8,0
			c-0.9,0-0.9,0-0.8-1c0.3,0,0.6,0,0.9,0c1.8-0.2,2.3-0.8,2.3-2.5c0-6.5,0-13,0-19.4c0-1.7-0.5-2.3-2.2-2.4c-0.5,0-1.2,0.1-1.1-0.7
			c0-0.3,0.8-0.6,1.2-0.6c5,0,10.1,0.1,15.1,0.2C104.8,56.4,105.8,56.3,106.9,56.2z"/>
		<path class="st0" d="M107.8,15.7c0.3,0.9,0,1.2-0.9,1.2c-2.4-0.2-2.6,0.8-2.6,2.7c0,6.1,0.1,12.2,0,18.3c0,2.3,1.2,2.7,2.6,2.8
			c1.8,0.1,3.6,0,5.4-0.2c1.5-0.2,2.6-1.1,3.4-2.4c0.3-0.5,0.4-1,0.7-1.5c0.2-0.3,0.6-0.5,0.9-0.8c0.1,0.3,0.3,0.7,0.3,1
			c-0.3,1.4-0.6,2.8-0.9,4.2c-0.1,0.4-0.2,0.8-0.4,1.3c-1.4,0-2.8,0-4.2,0c-5,0-10,0-15,0c-0.7,0-1.2-0.1-0.9-1
			c0.5-0.1,1-0.2,1.5-0.3c1.3-0.2,1.8-1,1.8-2.2c0-6.7,0-13.3,0-20c0-1.2-0.7-1.9-1.9-2c-0.4,0-0.9,0-1.4,0c0-0.4-0.1-0.8-0.1-1.2
			C99.9,15.7,103.8,15.7,107.8,15.7z"/>
		<path class="st0" d="M144.5,15.7c0.3,0.8,0,1.2-0.9,1.2c-2.4,0-2.6,0.3-2.6,2.7c0,6.1,0,12.2,0,18.4c0,1.9,0.6,2.7,2.5,2.8
			c1.6,0.1,3.3,0,4.9-0.2c2.3-0.2,3.7-1.5,4.5-3.6c0.1-0.2,0.1-0.4,0.2-0.5c0.2-0.2,0.5-0.4,0.8-0.6c0.1,0.3,0.3,0.6,0.3,0.9
			c-0.4,1.8-0.8,3.7-1.2,5.4c-2,0-4,0-5.9,0c-2.8,0-5.7,0-8.5,0.1c-1.7,0-3.4,0.1-5.2,0.1c-0.3,0-0.5-0.5-0.9-0.9
			c0.9-0.2,1.4-0.3,2-0.4c1.1-0.2,1.6-0.9,1.6-2c0-6.7,0-13.4,0-20.1c0-1.2-0.6-1.8-1.8-1.9c-0.5,0-0.9-0.1-1.5-0.1
			c0-0.4,0-0.8,0-1.1C136.7,15.7,140.5,15.7,144.5,15.7z"/>
		<path class="st0" d="M110.2,106.2c0,0.5,0,0.9,0,1.4c-33.2,0-66.3,0-99.6,0c0-0.4,0-0.9,0-1.4C43.8,106.2,77,106.2,110.2,106.2z"
			/>
		<path class="st0" d="M268.9,107.6c-28.9,0-57.7,0-86.5,0c-0.4-1.3-0.3-1.5,1-1.5c12.4,0,24.8,0,37.2,0c15.7,0,31.4,0,47.1,0
			C269.2,106.1,269.2,106.2,268.9,107.6z"/>
		<path class="st0" d="M161.3,106.1c-0.2-3.8,3.1-7.7,7.4-7.7c3.9,0,7.5,3,7.4,7.6c0,4.2-3,7.5-7.4,7.6
			C164,113.7,161.1,109.6,161.3,106.1z M173.3,106.3c0.1-1.5-0.4-3-1.3-4.5c-0.9-1.4-2.2-2.3-4-2.1c-1.7,0.2-2.9,1.3-3.4,2.9
			c-1,2.9-0.5,5.6,1.3,8c1.4,1.9,4,2.2,5.8,0.5C172.9,110,173.3,108.4,173.3,106.3z"/>
		<path class="st0" d="M146,100.7c0.1-1.5,2.3-3.3,4-3.7c2.3-0.4,4.2,0.4,5.1,2.2c1,2.2,0.2,3.9-3.2,6.7c0.5,0.1,0.9,0.2,1.4,0.4
			c2.4,0.6,3.6,2.9,3.2,5.3c-0.8,4.5-5.2,6.7-9.7,5.5c-0.7-0.2-1.2-0.7-1.8-1.1c-0.6-0.5-0.7-1.1-0.1-1.6c0.6-0.6,1,0,1.3,0.4
			c1.1,1.6,2.5,2,4.3,1.7c1.7-0.4,2.9-1.5,3.3-3.3c0.6-3.1-0.4-5.8-4.3-5.9c-0.2,0-0.3,0-0.5,0c-0.3-0.1-0.5-0.2-0.8-0.4
			c0.2-0.2,0.4-0.3,0.7-0.4c0.8-0.4,1.7-0.6,2.5-1.1c1.5-1,2.1-2.4,1.8-4.1c-0.2-1.4-1.2-2.6-2.8-2.7c-1,0-2.1,0.5-3.1,0.9
			C146.8,99.8,146.5,100.2,146,100.7z"/>
		<path class="st0" d="M140.2,97.3c0.1,2-0.1,2.3-1.9,2.3c-1.2,0-2.5,0.1-3.7,0c-0.9,0-1.3,0.2-1.7,1.1c-0.7,2-0.7,1.9,1,2.9
			c2.1,1.2,4,2.5,4.7,5c1.3,5.1-2.4,9.1-6.5,8.9c-1.2,0-2.3-0.4-3.4-0.8c-0.4-0.1-0.7-0.6-0.9-1c-0.1-0.3,0-0.9,0.2-1
			c0.3-0.2,0.8,0,1.2,0.1c0.1,0,0.2,0.2,0.3,0.3c1.4,1.6,2.4,1.9,4.2,1.3c1.7-0.6,2.7-2.1,2.9-3.8c0.3-3.3-1.5-5.3-4.1-6.8
			c-2.1-1.2-2.1-1.2-1.2-3.5c0.5-1.4,1-2.8,1.6-4.2c0.1-0.3,0.6-0.7,1-0.8C135.9,97.2,138,97.3,140.2,97.3z"/>
		<path class="st0" d="M123.4,112.2c0,0.3,0,0.7,0,1.1c-2.1,0-4.2,0-6.3,0c-0.2,0-0.4-0.3-0.6-0.5c0.2-0.2,0.4-0.6,0.6-0.7
			c0.5-0.1,1,0,1.7,0c0-3.5,0-7,0-10.6c-0.8,0.4-1.6,0.8-2.4,1.2c-0.2-0.3-0.4-0.6-0.6-0.9c1.8-1.1,3.6-2.1,5.6-3.4
			c0,0.8,0,1.2,0,1.6c0,3.3,0,6.6,0,9.8C121.3,111.9,121.3,111.9,123.4,112.2z"/>
		<path class="st0" d="M183.1,13.8c-0.7-0.2-1.4-0.4-2-0.7c-1.6-1-3.2-2-4.8-3c-0.4-0.3-0.8-0.6-1-1c-0.1-0.5-0.1-1.2,0.1-1.5
			c0.3-0.3,1-0.3,1.5-0.3c0.2,0,0.4,0.2,0.6,0.3c1.9,1.9,3.8,3.9,5.8,5.9C183.1,13.6,183.1,13.7,183.1,13.8z"/>
	</g>
</g>
</svg>
