<?xml version="1.0" encoding="utf-8"?>
<!-- Generator: Adobe Illustrator 24.1.2, SVG Export Plug-In . SVG Version: 6.00 Build 0)  -->
<svg version="1.1" id="Layer_1" xmlns="http://www.w3.org/2000/svg" xmlns:xlink="http://www.w3.org/1999/xlink" x="0px" y="0px"
	 viewBox="0 0 44 40" style="enable-background:new 0 0 44 40;" xml:space="preserve">
<style type="text/css">
	.st0{fill:#E51470;}
	.st1{fill:#A20D61;}
</style>
<g>
	<path class="st0" d="M43.7,16.2L22.1,8.7L0.4,16.2l21.7,7.4l18.2-6.2l-17.6-6l1-0.4l17.5,6.1L43.7,16.2L43.7,16.2z M41,19.7
		c0.5,0,1-0.4,1-1c0-0.5-0.4-1-1-1c-0.5,0-1,0.4-1,1C40.1,19.3,40.5,19.7,41,19.7L41,19.7z M40.4,20.1l-0.4,0.8v6.6l0.3,0.3v-6.5
		h0.3v6.8l0.3,0.3v-7.1h0.3v7.1l0.3-0.3v-6.8h0.3v6.5l0.3-0.3v-6.6l-0.5-0.8H40.4L40.4,20.1z"/>
	<polygon class="st0" points="35,27.3 35,20.1 22.1,24.5 22.1,31.7 35,27.3 	"/>
	<polygon class="st1" points="9.2,27.3 9.2,20.1 22.1,24.5 22.1,31.7 9.2,27.3 	"/>
</g>
</svg>
